<svg width="309" height="413" viewBox="0 0 309 413" fill="none" xmlns="http://www.w3.org/2000/svg">
<path d="M292.237 372.554C297.13 372.554 301.012 374.036 303.882 377.002C306.799 379.967 308.258 384.085 308.258 389.357V412.373H296.26V390.981C296.26 388.439 295.577 386.486 294.213 385.121C292.895 383.709 291.06 383.003 288.708 383.003C286.355 383.003 284.497 383.709 283.132 385.121C281.815 386.486 281.156 388.439 281.156 390.981V412.373H269.158V390.981C269.158 388.439 268.476 386.486 267.112 385.121C265.794 383.709 263.959 383.003 261.607 383.003C259.254 383.003 257.396 383.709 256.031 385.121C254.714 386.486 254.055 388.439 254.055 390.981V412.373H241.986V372.977H254.055V377.919C255.278 376.272 256.878 374.978 258.854 374.036C260.83 373.048 263.065 372.554 265.559 372.554C268.523 372.554 271.158 373.189 273.463 374.46C275.816 375.731 277.651 377.543 278.968 379.896C280.333 377.731 282.191 375.966 284.544 374.601C286.896 373.236 289.461 372.554 292.237 372.554Z" fill="#f4c1c8"/>
<path d="M223.865 379.543C225.277 377.378 227.041 375.684 229.159 374.46C231.276 373.189 233.628 372.554 236.216 372.554V385.333H232.899C229.888 385.333 227.63 385.991 226.124 387.309C224.618 388.58 223.865 390.839 223.865 394.087V412.373H211.797V372.977H223.865V379.543Z" fill="#f4c1c8"/>
<path d="M184.789 412.938C180.931 412.938 177.449 412.114 174.344 410.467C171.285 408.819 168.862 406.466 167.074 403.406C165.333 400.347 164.463 396.77 164.463 392.675C164.463 388.627 165.357 385.074 167.145 382.014C168.933 378.908 171.379 376.531 174.485 374.884C177.59 373.236 181.072 372.413 184.93 372.413C188.788 372.413 192.27 373.236 195.375 374.884C198.481 376.531 200.927 378.908 202.715 382.014C204.503 385.074 205.397 388.627 205.397 392.675C205.397 396.723 204.48 400.3 202.645 403.406C200.857 406.466 198.387 408.819 195.234 410.467C192.129 412.114 188.647 412.938 184.789 412.938ZM184.789 402.489C187.094 402.489 189.047 401.641 190.647 399.947C192.293 398.253 193.117 395.829 193.117 392.675C193.117 389.522 192.317 387.098 190.717 385.403C189.165 383.709 187.236 382.862 184.93 382.862C182.577 382.862 180.625 383.709 179.072 385.403C177.52 387.051 176.743 389.475 176.743 392.675C176.743 395.829 177.496 398.253 179.002 399.947C180.554 401.641 182.483 402.489 184.789 402.489Z" fill="#f4c1c8"/>
<path d="M161.189 383.003H154.696V412.373H142.628V383.003H138.252V372.978H142.628V371.848C142.628 367 144.016 363.329 146.792 360.834C149.568 358.293 153.638 357.022 159.001 357.022C159.895 357.022 160.554 357.046 160.978 357.093V367.33C158.672 367.189 157.049 367.518 156.108 368.318C155.167 369.118 154.696 370.554 154.696 372.625V372.978H161.189V383.003Z" fill="#f4c1c8"/>
<path d="M134.71 402.135V412.372H128.57C124.194 412.372 120.783 411.313 118.336 409.195C115.89 407.03 114.666 403.523 114.666 398.676V383.002H109.867V372.977H114.666V363.375H126.735V372.977H134.639V383.002H126.735V398.817C126.735 399.993 127.017 400.841 127.582 401.358C128.146 401.876 129.087 402.135 130.405 402.135H134.71Z" fill="#f4c1c8"/>
<path d="M62.459 392.605C62.459 388.557 63.2118 385.003 64.7174 381.944C66.2701 378.884 68.3639 376.531 70.9987 374.884C73.6336 373.236 76.5743 372.413 79.8208 372.413C82.5968 372.413 85.0199 372.977 87.0901 374.107C89.2074 375.237 90.8307 376.719 91.9599 378.555V372.977H104.028V412.373H91.9599V406.795C90.7836 408.631 89.1368 410.114 87.0195 411.243C84.9493 412.373 82.5262 412.938 79.7502 412.938C76.5507 412.938 73.6336 412.114 70.9987 410.467C68.3639 408.772 66.2701 406.395 64.7174 403.336C63.2118 400.229 62.459 396.652 62.459 392.605ZM91.9599 392.675C91.9599 389.663 91.113 387.286 89.4191 385.544C87.7724 383.803 85.7492 382.932 83.3496 382.932C80.95 382.932 78.9033 383.803 77.2094 385.544C75.5627 387.239 74.7393 389.592 74.7393 392.605C74.7393 395.617 75.5627 398.017 77.2094 399.806C78.9033 401.547 80.95 402.418 83.3496 402.418C85.7492 402.418 87.7724 401.547 89.4191 399.806C91.113 398.064 91.9599 395.687 91.9599 392.675Z" fill="#f4c1c8"/>
<path d="M56.1096 360.129V412.374H44.041V360.129H56.1096Z" fill="#f4c1c8"/>
<path d="M37.7583 378.766C37.7583 381.638 37.0996 384.273 35.7822 386.674C34.4648 389.027 32.4416 390.933 29.7126 392.392C26.9837 393.851 23.596 394.581 19.5496 394.581H12.0686V412.373H0V362.811H19.5496C23.5019 362.811 26.8425 363.493 29.5715 364.858C32.3004 366.223 34.3471 368.106 35.7116 370.506C37.0761 372.907 37.7583 375.66 37.7583 378.766ZM18.6321 384.979C20.9376 384.979 22.655 384.438 23.7842 383.355C24.9134 382.273 25.4781 380.743 25.4781 378.766C25.4781 376.79 24.9134 375.26 23.7842 374.177C22.655 373.095 20.9376 372.553 18.6321 372.553H12.0686V384.979H18.6321Z" fill="#f4c1c8"/>
<path d="M307.332 313.641C307.332 314.513 307.277 315.422 307.168 316.366H286.077C286.223 318.256 286.822 319.709 287.876 320.726C288.966 321.707 290.292 322.198 291.854 322.198C294.179 322.198 295.796 321.217 296.704 319.255H306.623C306.115 321.253 305.188 323.051 303.844 324.65C302.536 326.249 300.883 327.502 298.884 328.41C296.886 329.319 294.652 329.773 292.181 329.773C289.202 329.773 286.55 329.137 284.224 327.865C281.899 326.594 280.082 324.777 278.774 322.416C277.466 320.054 276.812 317.293 276.812 314.132C276.812 310.971 277.448 308.21 278.72 305.848C280.028 303.486 281.845 301.67 284.17 300.398C286.495 299.127 289.165 298.491 292.181 298.491C295.124 298.491 297.74 299.108 300.029 300.344C302.318 301.579 304.098 303.341 305.37 305.63C306.678 307.919 307.332 310.589 307.332 313.641ZM297.794 311.189C297.794 309.59 297.249 308.319 296.159 307.374C295.069 306.429 293.707 305.957 292.072 305.957C290.51 305.957 289.184 306.411 288.094 307.319C287.04 308.228 286.386 309.518 286.132 311.189H297.794Z" fill="#fbbf24"/>
<path d="M264.675 303.995C265.765 302.324 267.127 301.016 268.762 300.071C270.397 299.09 272.214 298.6 274.212 298.6V308.464H271.651C269.325 308.464 267.581 308.972 266.419 309.99C265.256 310.971 264.675 312.715 264.675 315.222V329.337H255.355V298.927H264.675V303.995Z" fill="#fbbf24"/>
<path d="M216.514 314.077C216.514 310.953 217.095 308.21 218.258 305.848C219.457 303.486 221.073 301.67 223.108 300.398C225.143 299.127 227.413 298.491 229.92 298.491C232.064 298.491 233.935 298.927 235.534 299.799C237.169 300.671 238.422 301.815 239.294 303.232V298.927H248.613V329.337H239.294V325.031C238.386 326.448 237.114 327.593 235.479 328.465C233.881 329.337 232.009 329.773 229.866 329.773C227.395 329.773 225.143 329.137 223.108 327.865C221.073 326.557 219.457 324.723 218.258 322.361C217.095 319.963 216.514 317.202 216.514 314.077ZM239.294 314.132C239.294 311.807 238.64 309.972 237.332 308.627C236.06 307.283 234.498 306.611 232.645 306.611C230.792 306.611 229.212 307.283 227.904 308.627C226.632 309.935 225.996 311.752 225.996 314.077C225.996 316.403 226.632 318.256 227.904 319.636C229.212 320.98 230.792 321.653 232.645 321.653C234.498 321.653 236.06 320.98 237.332 319.636C238.64 318.292 239.294 316.457 239.294 314.132Z" fill="#fbbf24"/>
<path d="M183.518 314.132C183.518 310.971 184.153 308.21 185.425 305.848C186.733 303.486 188.531 301.67 190.82 300.398C193.146 299.127 195.798 298.491 198.777 298.491C202.592 298.491 205.771 299.49 208.314 301.488C210.894 303.486 212.583 306.302 213.383 309.935H203.464C202.628 307.61 201.012 306.447 198.614 306.447C196.906 306.447 195.544 307.12 194.526 308.464C193.509 309.772 193 311.661 193 314.132C193 316.602 193.509 318.51 194.526 319.854C195.544 321.162 196.906 321.816 198.614 321.816C201.012 321.816 202.628 320.653 203.464 318.328H213.383C212.583 321.889 210.894 324.686 208.314 326.721C205.735 328.756 202.556 329.773 198.777 329.773C195.798 329.773 193.146 329.137 190.82 327.865C188.531 326.594 186.733 324.777 185.425 322.416C184.153 320.054 183.518 317.293 183.518 314.132Z" fill="#fbbf24"/>
<path d="M167.339 298.6C170.827 298.6 173.625 299.762 175.732 302.087C177.84 304.376 178.893 307.537 178.893 311.57V329.337H169.628V312.824C169.628 310.789 169.102 309.209 168.048 308.082C166.994 306.956 165.577 306.393 163.797 306.393C162.017 306.393 160.6 306.956 159.546 308.082C158.493 309.209 157.966 310.789 157.966 312.824V329.337H148.646V289.008H157.966V303.014C158.91 301.67 160.2 300.598 161.835 299.799C163.47 298.999 165.305 298.6 167.339 298.6Z" fill="#fbbf24"/>
<path d="M143.457 321.435V329.337H138.716C135.337 329.337 132.703 328.52 130.813 326.885C128.924 325.213 127.979 322.507 127.979 318.764V306.666H124.273V298.927H127.979V291.515H137.299V298.927H143.402V306.666H137.299V318.873C137.299 319.782 137.517 320.436 137.953 320.835C138.389 321.235 139.115 321.435 140.133 321.435H143.457Z" fill="#fbbf24"/>
<path d="M119.753 289.008V329.337H110.434V289.008H119.753Z" fill="#fbbf24"/>
<path d="M71.5938 314.077C71.5938 310.953 72.1751 308.21 73.3377 305.848C74.5367 303.486 76.1535 301.67 78.1881 300.398C80.2227 299.127 82.4934 298.491 85.0004 298.491C87.144 298.491 89.0151 298.927 90.6137 299.799C92.2487 300.671 93.5021 301.815 94.3741 303.232V298.927H103.693V329.337H94.3741V325.031C93.4658 326.448 92.1942 327.593 90.5592 328.465C88.9606 329.337 87.0895 329.773 84.9459 329.773C82.4753 329.773 80.2227 329.137 78.1881 327.865C76.1535 326.557 74.5367 324.723 73.3377 322.361C72.1751 319.963 71.5938 317.202 71.5938 314.077ZM94.3741 314.132C94.3741 311.807 93.7201 309.972 92.4122 308.627C91.1405 307.283 89.5782 306.611 87.7253 306.611C85.8724 306.611 84.2919 307.283 82.9839 308.627C81.7123 309.935 81.0765 311.752 81.0765 314.077C81.0765 316.403 81.7123 318.256 82.9839 319.636C84.2919 320.98 85.8724 321.653 87.7253 321.653C89.5782 321.653 91.1405 320.98 92.4122 319.636C93.7201 318.292 94.3741 316.457 94.3741 314.132Z" fill="#fbbf24"/>
<path d="M68.5289 313.641C68.5289 314.513 68.4744 315.422 68.3654 316.366H47.2745C47.4198 318.256 48.0193 319.709 49.073 320.726C50.1629 321.707 51.4891 322.198 53.0513 322.198C55.3766 322.198 56.9934 321.217 57.9017 319.255H67.8204C67.3118 321.253 66.3853 323.051 65.041 324.65C63.733 326.249 62.0799 327.502 60.0817 328.41C58.0834 329.319 55.8489 329.773 53.3783 329.773C50.3991 329.773 47.7468 329.137 45.4216 327.865C43.0963 326.594 41.2797 324.777 39.9717 322.416C38.6637 320.054 38.0098 317.293 38.0098 314.132C38.0098 310.971 38.6456 308.21 39.9172 305.848C41.2252 303.486 43.0418 301.67 45.3671 300.398C47.6923 299.127 50.3628 298.491 53.3783 298.491C56.3213 298.491 58.9372 299.108 61.2261 300.344C63.5151 301.579 65.2953 303.341 66.567 305.63C67.8749 307.919 68.5289 310.589 68.5289 313.641ZM58.9917 311.189C58.9917 309.59 58.4467 308.319 57.3567 307.374C56.2668 306.429 54.9043 305.957 53.2693 305.957C51.7071 305.957 50.3809 306.411 49.291 307.319C48.2373 308.228 47.5833 309.518 47.329 311.189H58.9917Z" fill="#fbbf24"/>
<path d="M33.1351 291.079V329.337H23.8158V313.586H9.31924V329.337H0V291.079H9.31924V306.066H23.8158V291.079H33.1351Z" fill="#fbbf24"/>
<path d="M308.259 243.651C308.259 244.63 308.203 245.65 308.091 246.71H286.353C286.503 248.831 287.121 250.462 288.207 251.604C289.33 252.705 290.697 253.256 292.307 253.256C294.704 253.256 296.37 252.155 297.306 249.952H307.529C307.005 252.196 306.05 254.214 304.664 256.009C303.316 257.803 301.613 259.21 299.553 260.23C297.494 261.25 295.191 261.759 292.644 261.759C289.574 261.759 286.84 261.046 284.444 259.618C282.047 258.191 280.175 256.152 278.827 253.501C277.479 250.85 276.805 247.75 276.805 244.202C276.805 240.654 277.46 237.554 278.771 234.903C280.119 232.252 281.991 230.213 284.387 228.786C286.784 227.358 289.536 226.645 292.644 226.645C295.677 226.645 298.374 227.338 300.733 228.725C303.092 230.111 304.927 232.089 306.237 234.659C307.585 237.228 308.259 240.226 308.259 243.651ZM298.43 240.898C298.43 239.104 297.868 237.677 296.745 236.616C295.621 235.556 294.217 235.026 292.532 235.026C290.922 235.026 289.555 235.535 288.432 236.555C287.346 237.575 286.672 239.022 286.41 240.898H298.43Z" fill="#f4c1c8"/>
<path d="M259.961 226.767C263.63 226.767 266.551 228.072 268.723 230.682C270.932 233.251 272.037 236.799 272.037 241.326V261.27H262.488V242.733C262.488 240.45 261.945 238.675 260.859 237.411C259.773 236.147 258.313 235.515 256.478 235.515C254.643 235.515 253.183 236.147 252.097 237.411C251.011 238.675 250.468 240.45 250.468 242.733V261.27H240.863V227.134H250.468V231.661C251.442 230.152 252.752 228.969 254.4 228.112C256.048 227.215 257.901 226.767 259.961 226.767Z" fill="#f4c1c8"/>
<path d="M215.355 261.699C211.648 261.699 208.24 260.761 205.132 258.885C202.062 257.009 199.609 254.398 197.774 251.054C195.977 247.669 195.078 243.876 195.078 239.675C195.078 235.475 195.977 231.702 197.774 228.358C199.609 225.014 202.062 222.404 205.132 220.527C208.24 218.651 211.648 217.713 215.355 217.713C219.062 217.713 222.451 218.651 225.522 220.527C228.63 222.404 231.064 225.014 232.824 228.358C234.621 231.702 235.52 235.475 235.52 239.675C235.52 243.876 234.621 247.669 232.824 251.054C231.026 254.398 228.592 257.009 225.522 258.885C222.451 260.761 219.062 261.699 215.355 261.699ZM215.355 252.155C218.501 252.155 221.009 251.013 222.882 248.729C224.791 246.446 225.746 243.428 225.746 239.675C225.746 235.883 224.791 232.865 222.882 230.621C221.009 228.338 218.501 227.196 215.355 227.196C212.172 227.196 209.626 228.317 207.716 230.56C205.844 232.803 204.908 235.842 204.908 239.675C204.908 243.468 205.844 246.507 207.716 248.791C209.626 251.034 212.172 252.155 215.355 252.155Z" fill="#f4c1c8"/>
<path d="M188.277 235.454V244.141H163.562V235.454H188.277Z" fill="#f4c1c8"/>
<path d="M145.375 226.767C149.044 226.767 151.965 228.072 154.137 230.682C156.346 233.251 157.451 236.799 157.451 241.326V261.27H147.902V242.733C147.902 240.45 147.359 238.675 146.273 237.411C145.188 236.147 143.727 235.515 141.892 235.515C140.057 235.515 138.597 236.147 137.511 237.411C136.425 238.675 135.882 240.45 135.882 242.733V261.27H126.277V227.134H135.882V231.661C136.856 230.152 138.166 228.969 139.814 228.112C141.462 227.215 143.315 226.767 145.375 226.767Z" fill="#f4c1c8"/>
<path d="M119.316 218.325V261.27H109.711V218.325H119.316Z" fill="#f4c1c8"/>
<path d="M101.281 235.454V244.141H76.5664V235.454H101.281Z" fill="#f4c1c8"/>
<path d="M70.1674 216V261.27H60.5625V216H70.1674Z" fill="#f4c1c8"/>
<path d="M53.601 216V261.27H43.9961V216H53.601Z" fill="#f4c1c8"/>
<path d="M27.1296 253.684H12.4133L10.0542 261.27H0L14.2669 218.325H25.3883L39.6552 261.27H29.4887L27.1296 253.684ZM24.6581 245.609L19.7714 229.887L14.9409 245.609H24.6581Z" fill="#f4c1c8"/>
<path d="M152.152 70.297C169.815 66.7216 169.057 80.6276 169.057 80.6276C169.057 80.6276 160.967 119.792 157.606 134.159C155.036 145.149 159.666 152.135 163.521 155.842L179.519 62.2071C180.047 59.1425 177.213 56.5722 174.214 57.3796L129.53 69.3743L129.283 72.8838C138.708 75.1575 148.906 70.9396 152.152 70.297Z" fill="#ACE4F8"/>
<path d="M220.775 49.1578H196.456C189.701 49.1578 184.214 43.6712 184.214 36.9159V12.5969C184.214 5.84159 178.728 0.35498 171.973 0.35498H136.4C129.645 0.35498 124.158 5.84159 124.158 12.5969V36.9159C124.158 43.6712 118.672 49.1578 111.916 49.1578H87.5974C80.8421 49.1578 75.3555 54.6444 75.3555 61.3997V96.9721C75.3555 103.727 80.8421 109.214 87.5974 109.214H111.916C118.672 109.214 124.158 114.701 124.158 121.456V145.775C124.158 148.905 125.328 151.739 127.256 153.914C128.854 155.694 131.803 154.936 132.331 152.596L146.517 89.014C146.978 86.9545 145.166 85.0926 143.106 85.5045L131.935 87.6629C130.04 88.0254 128.31 86.4931 128.459 84.5654L129.299 72.8837C129.447 70.7747 130.914 68.9953 132.957 68.4516L174.329 57.3465C177.278 56.5557 180.079 59.093 179.552 62.1082L163.52 155.825C164.492 156.748 165.399 157.473 166.156 158H168.496H171.973C178.728 158 184.214 152.514 184.214 145.758V121.439C184.214 114.684 189.701 109.197 196.456 109.197H220.775C227.531 109.197 233.017 103.711 233.017 96.9556V61.3832C233.017 54.6279 227.531 49.1578 220.775 49.1578Z" fill="#fbbf24"/>
</svg>


