<svg width="1440" height="157" viewBox="0 0 1440 157" fill="none" xmlns="http://www.w3.org/2000/svg">
<rect width="1440" height="157" fill="url(#paint0_linear_1489_1648)"/>
<path d="M132.662 7.52087L108.846 18.7586L138.97 82.5968L162.785 71.359L132.662 7.52087Z" fill="url(#paint1_linear_1489_1648)"/>
<path d="M98.365 47.9695L109.603 71.7848L173.441 41.6613L162.203 17.8461L98.365 47.9695Z" fill="url(#paint2_linear_1489_1648)"/>
<path d="M1200.12 91.2603L1186.96 97.4691L1203.61 132.74L1216.77 126.531L1200.12 91.2603Z" fill="url(#paint3_linear_1489_1648)"/>
<path d="M1181.17 113.608L1187.38 126.766L1222.65 110.123L1216.44 96.9649L1181.17 113.608Z" fill="url(#paint4_linear_1489_1648)"/>
<path d="M1368.5 34.9602L1348.59 44.3557L1373.78 97.7292L1393.69 88.3336L1368.5 34.9602Z" fill="url(#paint5_linear_1489_1648)"/>
<path d="M1339.83 68.7782L1349.23 88.6895L1402.6 63.5041L1393.2 43.5928L1339.83 68.7782Z" fill="url(#paint6_linear_1489_1648)"/>
<path d="M254.412 100.579L245.46 104.803L256.784 128.8L265.736 124.576L254.412 100.579Z" fill="url(#paint7_linear_1489_1648)"/>
<path d="M241.52 115.784L245.745 124.736L269.742 113.413L265.517 104.46L241.52 115.784Z" fill="url(#paint8_linear_1489_1648)"/>
<defs>
<linearGradient id="paint0_linear_1489_1648" x1="1714" y1="78.1847" x2="-289" y2="78.1847" gradientUnits="userSpaceOnUse">
<stop stop-color="#f4c1c8"/>
<stop offset="1" stop-color="#fbbf24"/>
</linearGradient>
<linearGradient id="paint1_linear_1489_1648" x1="120.919" y1="13.0617" x2="151.043" y2="76.8999" gradientUnits="userSpaceOnUse">
<stop stop-color="white"/>
<stop offset="1" stop-color="#fbbf24" stop-opacity="0.2"/>
</linearGradient>
<linearGradient id="paint2_linear_1489_1648" x1="120.919" y1="13.0617" x2="151.043" y2="76.8999" gradientUnits="userSpaceOnUse">
<stop stop-color="white"/>
<stop offset="1" stop-color="#fbbf24" stop-opacity="0.2"/>
</linearGradient>
<linearGradient id="paint3_linear_1489_1648" x1="1193.64" y1="94.3216" x2="1210.28" y2="129.592" gradientUnits="userSpaceOnUse">
<stop stop-color="white"/>
<stop offset="1" stop-color="#f4c1c8" stop-opacity="0.2"/>
</linearGradient>
<linearGradient id="paint4_linear_1489_1648" x1="1193.64" y1="94.3216" x2="1210.28" y2="129.592" gradientUnits="userSpaceOnUse">
<stop stop-color="white"/>
<stop offset="1" stop-color="#f4c1c8" stop-opacity="0.2"/>
</linearGradient>
<linearGradient id="paint5_linear_1489_1648" x1="1358.69" y1="39.5927" x2="1383.87" y2="92.9661" gradientUnits="userSpaceOnUse">
<stop stop-color="white"/>
<stop offset="1" stop-color="#f4c1c8" stop-opacity="0.2"/>
</linearGradient>
<linearGradient id="paint6_linear_1489_1648" x1="1358.69" y1="39.5927" x2="1383.87" y2="92.9661" gradientUnits="userSpaceOnUse">
<stop stop-color="white"/>
<stop offset="1" stop-color="#f4c1c8" stop-opacity="0.2"/>
</linearGradient>
<linearGradient id="paint7_linear_1489_1648" x1="249.998" y1="102.662" x2="261.322" y2="126.659" gradientUnits="userSpaceOnUse">
<stop stop-color="white"/>
<stop offset="1" stop-color="#fbbf24" stop-opacity="0.2"/>
</linearGradient>
<linearGradient id="paint8_linear_1489_1648" x1="249.998" y1="102.662" x2="261.322" y2="126.659" gradientUnits="userSpaceOnUse">
<stop stop-color="white"/>
<stop offset="1" stop-color="#fbbf24" stop-opacity="0.2"/>
</linearGradient>
</defs>
</svg>


