<svg width="100" height="100" viewBox="0 0 100 100" fill="none" xmlns="http://www.w3.org/2000/svg">
<rect width="100" height="100" rx="20" fill="#32BCED"/>
<path d="M63.8079 20.8315C64.9581 21.7768 65.646 22.9517 65.816 24.4288C65.8922 26.4015 65.3002 27.6556 63.991 29.1061C63.6125 29.429 63.6125 29.429 63.0263 29.429C62.9094 29.2517 62.7925 29.0743 62.6721 28.8916C62.1401 28.1013 61.6197 27.6348 60.6907 27.3636C59.7145 27.1885 59.22 27.3828 58.3367 27.8658C58.5846 28.0434 58.5846 28.0434 58.8374 28.2245C61.1535 29.9192 62.8314 31.7312 63.5369 34.607C63.9329 37.1673 63.322 39.251 61.8539 41.3482C59.8839 43.8956 56.897 45.2279 53.7693 45.7203C50.0416 46.1326 45.9855 45.5839 42.9003 43.3022C42.2175 42.7456 41.5751 42.1605 40.9463 41.5436C40.7737 41.3782 40.7737 41.3782 40.5975 41.2093C38.9591 39.4913 38.5027 37.1683 38.5474 34.8795C38.7113 32.5768 39.9987 30.6008 41.6401 29.0344C44.2735 26.905 47.3483 26.0728 50.6918 26.0706C50.8784 26.0682 51.0651 26.0658 51.2574 26.0633C52.3845 26.061 53.3482 26.1749 54.4288 26.498C54.4541 26.2781 54.4541 26.2781 54.4799 26.0538C54.761 24.0063 55.3095 22.4239 56.9598 21.1055C59.0148 19.6976 61.6403 19.6659 63.8079 20.8315Z" fill="white"/>
<path d="M64.979 39.0035C67.7486 42.3793 68.4485 47.9324 68.0682 52.1134C67.792 54.3863 66.9219 56.9087 65.163 58.4669C62.1203 60.6464 58.341 60.394 54.8135 59.8256C53.1823 59.553 51.5576 59.2451 49.9334 58.934C49.612 58.8728 49.2906 58.8117 48.9692 58.7506C48.8087 58.72 48.6483 58.6895 48.4829 58.658C48.1588 58.5963 47.8347 58.5347 47.5106 58.4731C46.7406 58.3267 45.9709 58.1789 45.2018 58.0276C40.0872 56.8147 40.0872 56.8147 35.2175 57.9815C35.0442 58.1024 34.4424 58.5334 34.2639 58.658C34.006 58.658 34.5309 58.658 34.2652 58.658C32.6366 56.6438 31.4655 53.6133 31.5882 51.0456C31.7783 49.7239 32.5252 48.8445 33.52 47.9918C35.6042 46.6672 38.1008 46.7619 40.4748 46.7792C40.9772 46.7827 41.4796 46.7832 41.982 46.7831C43.6816 46.7868 45.3635 46.8425 47.0591 46.9691C48.27 47.0454 49.4802 47.0584 50.6933 47.0617C51.1185 47.0636 51.5435 47.0697 51.9687 47.0758C54.3926 47.094 56.7584 46.8322 58.9217 45.647C59.1771 45.5091 59.1771 45.5091 59.4377 45.3684C62.039 43.8461 63.4879 41.532 64.979 39.0035Z" fill="white"/>
<path d="M47.9807 60.1294C48.1448 60.1606 48.309 60.1917 48.4781 60.2238C49.0117 60.3252 49.5453 60.4268 50.0789 60.5286C50.2598 60.5631 50.4406 60.5976 50.627 60.6332C51.5214 60.8041 52.4156 60.9764 53.3092 61.1518C58.6083 62.3696 58.6083 62.3696 63.8079 61.4972C64.3755 61.0992 64.3755 61.0992 64.7849 60.7156C64.9138 60.7156 65.0428 60.7156 65.1757 60.7156C66.8685 63.0054 67.9018 65.8738 67.5205 68.7269C67.1891 69.9452 66.4272 70.7955 65.3711 71.4625C61.5974 73.4404 56.4515 72.6582 52.3771 72.3296C49.0358 72.0869 45.3494 71.8272 42.1188 72.8303C41.9434 72.8824 41.7681 72.9346 41.5875 72.9883C38.7286 73.981 36.833 76.1451 35.302 78.6327C34.934 79.2081 34.545 79.732 34.1074 80.2554C33.1189 78.4064 32.3478 76.6078 31.7627 74.5889C31.7 74.3838 31.6372 74.1788 31.5726 73.9676C30.6031 70.2791 30.8028 65.8932 32.6488 62.5154C33.8827 60.6532 35.5966 59.6793 37.7499 59.2309C41.1471 58.6528 44.6519 59.4977 47.9807 60.1294Z" fill="white"/>
</svg>
