<svg width="362" height="161" viewBox="0 0 362 161" fill="none" xmlns="http://www.w3.org/2000/svg">
<path d="M361.666 5.60895L355.973 0L338.789 17.247L344.587 22.7719L361.666 5.60895Z" fill="white"/>
<path d="M310.766 28.9908H309.044H287.742H286.02H219.511H217.788H214.679C214.679 24.7263 213.313 21.239 210.582 18.5081C207.851 15.7771 204.595 14.4117 200.793 14.4117H189.323C187.306 14.4117 186.298 13.4033 186.298 11.3866V10.6934H177.244C177.244 13.9075 178.357 16.6384 180.563 18.8442C182.769 21.05 185.5 22.1634 188.714 22.1634H200.793C202.116 22.1634 203.251 22.6465 204.196 23.5919C205.142 24.5372 205.625 25.6716 205.625 26.9951V28.9697H171.383H148.989V28.9487H139.935V32.9191C136.322 30.2722 132.12 28.9487 127.33 28.9487H123.612C118.717 28.9487 114.537 30.6923 111.05 34.1586C107.562 37.6458 105.84 41.8263 105.84 46.721V53.9685H110.335C112.457 53.9685 114.306 54.7458 115.86 56.3003C117.415 57.8548 118.192 59.6615 118.192 61.7412L108.361 65.5435L111.218 72.9591L139.956 61.9093V71.5936C138.926 71.2575 137.771 71.0685 136.511 71.0685C133.465 71.0685 130.965 71.9088 129.011 73.5683C127.057 71.9088 124.852 71.0685 122.373 71.0685C118.234 71.0685 115.02 72.2449 112.709 74.5977C110.398 76.9505 109.264 79.8705 109.264 83.3157C109.264 86.824 110.503 89.6389 112.982 91.7607C115.461 93.8824 118.444 94.9538 121.952 94.9538H126.007V87.7063H121.952C120.566 87.7063 119.474 87.2651 118.633 86.3618C117.793 85.4795 117.373 84.3661 117.373 83.0426C117.373 81.4251 117.814 80.2066 118.717 79.3664C119.6 78.5261 120.65 78.1059 121.868 78.1059C124.179 78.1059 125.314 79.2823 125.314 81.6351V84.7442H133.338V81.131C133.338 80.2066 133.633 79.4714 134.242 78.9252C134.851 78.379 135.67 78.1059 136.7 78.1059C137.687 78.1059 138.464 78.4 139.073 78.9672C139.683 79.5344 139.977 80.3537 139.977 81.3831V82.5805V94.9328H149.031V82.5805V70.0181V36.7214H158.652V82.6225H167.706V36.7214H173.483H177.286V66.741C177.286 71.1105 178.819 74.8498 181.907 77.9589C184.974 81.0679 188.714 82.6225 193.083 82.6225H195.583C200.814 82.6225 205.31 80.8789 209.091 77.4127C212.851 73.9255 214.742 69.724 214.742 64.7663V63.2117C214.742 58.8422 213.061 55.1239 209.7 52.0358C206.339 48.9687 202.285 47.4142 197.579 47.4142H193.861V55.1869H197.579C199.764 55.1869 201.654 55.9852 203.272 57.5607C204.889 59.1363 205.688 61.0269 205.688 63.2117V64.7663C205.688 67.5812 204.7 69.9761 202.705 71.9298C200.73 73.8835 198.356 74.8708 195.583 74.8708H193.083C191.193 74.8708 189.596 74.0725 188.294 72.4969C186.991 70.9214 186.361 69.0097 186.361 66.7619V36.7425H217.851H219.574H222.683L235.539 50.0191L234.153 50.4603C230.707 51.5526 227.935 53.5273 225.834 56.3633C223.733 59.2203 222.683 62.3504 222.683 65.8166V73.4003L253.395 82.6225H262.45V50.9644H267.449C269.529 50.9644 271.294 51.6787 272.764 53.1282C274.235 54.5567 274.97 56.3213 274.97 58.401C274.97 60.4808 274.403 62.0773 273.247 63.1907C272.092 64.3041 270.747 64.8713 269.193 64.8713V72.644C273.268 72.644 276.777 71.3415 279.676 68.7156C282.575 66.0897 284.024 62.9176 284.024 59.1783C284.024 54.4727 282.407 50.6283 279.15 47.6663C275.894 44.7043 272.008 43.2337 267.47 43.2337H253.416V74.5557L231.758 68.0014V64.5562C231.758 63.0647 232.241 61.6782 233.228 60.4177C234.216 59.1573 235.476 58.296 237.031 57.8338L246.61 54.8088L244.194 47.3092L234.006 36.7845H286.104H287.826H296.103C292.658 41.154 290.935 46.6999 290.935 53.4433V62.4975C290.935 67.6653 292.49 72.1188 295.599 75.8161C298.708 79.5134 302.994 81.8032 308.456 82.6645V74.8918C306.04 74.3666 304.023 73.1692 302.427 71.2785C300.809 69.3879 300.011 66.888 300.011 63.7789V52.1408C300.011 47.6032 301.061 43.927 303.162 41.091C305.263 38.276 307.825 36.8265 310.892 36.7845H314.002V47.8343H318.497C321.081 47.8343 323.329 48.5906 325.219 50.0821C326.774 51.4056 327.656 52.8971 327.887 54.5777C324.316 54.9768 321.249 56.3003 318.665 58.5481C315.556 61.3 314.002 64.7032 314.002 68.7366C314.002 72.581 315.472 75.6901 318.455 78.0639C321.417 80.4167 324.82 81.5931 328.686 81.5931H333.517V73.8204H328.686C327.194 73.8204 325.892 73.3582 324.757 72.4339C323.644 71.5096 323.077 70.2492 323.077 68.6316C323.077 66.909 323.749 65.4175 325.114 64.136C326.459 62.8756 328.118 62.2454 330.072 62.2454H335.933C338.916 62.2454 341.5 63.2117 343.664 65.1444C345.828 67.077 346.899 69.4509 346.899 72.2659V82.7065H355.953V36.8055H361.814V29.0328H310.766V28.9908ZM139.914 53.3803L126.637 58.4641C126.07 56.4474 125.083 54.5777 123.696 52.8551C121.343 49.9141 118.402 47.9394 114.894 46.91V45.5235C114.894 43.0447 115.734 40.9649 117.436 39.2634C119.137 37.5618 121.196 36.7214 123.612 36.7214H127.33C130.839 36.7214 133.822 37.9609 136.258 40.4398C138.695 42.9186 139.935 45.8806 139.935 49.3259V53.3803H139.914ZM346.731 57.4557C343.79 55.6071 340.471 54.5987 336.731 54.4307C336.269 51.4896 335.03 48.8427 333.013 46.4899C330.366 43.5489 327.005 41.5952 322.93 40.6288V36.7425H346.731V57.4557Z" fill="white"/>
<path d="M125.524 154.383C122.583 154.383 120.083 153.354 118.025 151.295C115.966 149.236 114.937 146.736 114.937 143.795V120.771H110.336V116.297H135.083V114.763C135.083 113.629 134.683 112.642 133.885 111.864C133.087 111.066 132.121 110.667 130.965 110.667H122.394C120.356 110.667 118.592 109.932 117.121 108.482C115.651 107.033 114.916 105.268 114.916 103.188H119.999C119.999 105.184 120.903 106.192 122.688 106.192H130.965C133.486 106.192 135.671 107.096 137.456 108.881C139.242 110.667 140.145 112.852 140.145 115.372V116.297H143.948V120.771H119.999V143.795C119.999 145.476 120.545 146.905 121.617 148.123C122.709 149.32 123.991 149.93 125.503 149.93H127.289C129.453 149.93 131.28 149.173 132.793 147.64C134.305 146.106 135.062 144.258 135.062 142.094V140.749C135.062 138.985 134.431 137.493 133.192 136.254C131.952 135.014 130.44 134.384 128.696 134.384H125.944V129.91H128.696C131.847 129.91 134.536 130.96 136.784 133.061C139.032 135.161 140.145 137.724 140.145 140.749V142.094C140.145 145.518 138.885 148.438 136.385 150.812C133.885 153.207 130.839 154.404 127.289 154.404H125.524V154.383Z" fill="white"/>
<path d="M147.331 154.382V120.75H142.73V116.275H156.994V120.75H152.394V154.382H147.331Z" fill="white"/>
<path d="M180.842 154.383L159.352 144.279V138.775C159.352 136.296 160.045 134.048 161.41 132.074C162.776 130.099 164.856 128.67 167.629 127.809L180.863 123.839V120.772H155.57V116.297H204.013V120.772H185.947V123.839H188.699C192.165 123.839 195.085 124.847 197.459 126.864C199.833 128.881 201.009 131.338 201.009 134.237V135.393C201.009 137.956 200.043 140.14 198.131 141.926C196.219 143.691 193.888 144.594 191.157 144.594V140.119C192.459 140.119 193.594 139.657 194.518 138.733C195.463 137.809 195.925 136.695 195.925 135.393V134.237C195.925 132.599 195.232 131.212 193.867 130.036C192.501 128.881 190.779 128.292 188.699 128.292H185.947V154.383H180.842ZM180.842 128.544L169.33 132.032C166.053 133.019 164.435 135.057 164.435 138.166V141.653L180.842 149.363V128.544Z" fill="white"/>
<path d="M207.347 154.382V120.75H202.746V116.275H217.01V120.75H212.409V154.382H207.347Z" fill="white"/>
<path d="M241.177 154.382L219.371 147.828V141.883C219.371 139.593 220.064 137.514 221.493 135.602C222.9 133.711 224.749 132.367 227.039 131.589L229.245 130.917L219.455 120.75H215.59V116.275H250.861V120.75H246.261V154.382H241.177ZM241.177 120.771H225.925L234.202 129.405L235.547 133.69L228.635 135.833C227.417 136.274 226.409 137.009 225.631 138.018C224.854 139.026 224.476 140.118 224.476 141.295V144.719L241.198 149.74V120.771H241.177ZM226.745 160.075C226.115 159.466 225.799 158.731 225.799 157.87C225.799 157.008 226.115 156.273 226.745 155.643C227.375 155.013 228.131 154.698 228.972 154.698C229.833 154.698 230.568 155.013 231.177 155.643C231.786 156.273 232.102 157.029 232.102 157.87C232.102 158.71 231.786 159.466 231.177 160.075C230.568 160.685 229.833 161 228.972 161C228.131 161 227.375 160.685 226.745 160.075Z" fill="white"/>
<path d="M267.619 149.678C265.497 147.115 264.426 144.132 264.426 140.729V133.124C264.426 128.103 265.728 124.07 268.354 121.003C270.959 117.936 274.152 116.36 277.912 116.297V120.772C275.581 120.814 273.606 121.906 271.967 124.049C270.329 126.192 269.51 129.028 269.51 132.536V141.359C269.51 143.523 270.14 145.392 271.379 146.968C272.619 148.543 274.236 149.531 276.19 149.93V154.404C272.598 153.816 269.741 152.241 267.619 149.678Z" fill="white"/>
<path d="M303.809 154.382V146.841C303.809 144.803 303.095 143.059 301.667 141.631C300.238 140.202 298.516 139.488 296.52 139.488H295.47C295.217 142.555 294.041 145.202 291.919 147.45C289.461 150.013 286.52 151.315 283.096 151.315H280.47V146.841H282.487C284.819 146.841 286.73 145.979 288.222 144.278C289.714 142.555 290.449 140.518 290.449 138.144V137.156C290.449 134.783 289.693 132.766 288.18 131.064C286.667 129.363 284.756 128.522 282.424 128.522H280.47V120.75H276.668V116.275H313.473V120.75H308.872V154.382H303.809ZM303.809 120.771H285.554V124.447C288.453 125.098 290.848 126.59 292.718 128.922C294.146 130.749 295.028 132.808 295.343 135.056H296.499C299.272 135.056 301.709 135.854 303.788 137.451V120.771H303.809Z" fill="white"/>
<path d="M337.582 154.383L316.07 144.279V138.775C316.07 136.296 316.764 134.048 318.129 132.074C319.495 130.099 321.574 128.67 324.347 127.809L337.582 123.839V120.772H312.289V116.297H347.266V120.772H342.666V154.404H337.582V154.383ZM337.582 128.544L326.07 132.032C322.793 133.019 321.175 135.057 321.175 138.166V141.653L337.582 149.363V128.544Z" fill="white"/>
<path d="M350.608 154.382V120.75H346.008V116.275H360.272V120.75H355.671V154.382H350.608Z" fill="white"/>
<path d="M39.9559 154.173C28.4649 154.173 18.9276 150.434 11.365 142.913C3.80232 135.413 0 126.905 0 117.368C0 108.398 3.50821 100.751 10.5247 94.449C17.5411 88.1468 26.0911 84.9957 36.1746 84.9957H38.2754V103.923C32.8134 103.923 28.738 105.247 26.0701 107.915C23.4022 110.583 22.0787 113.734 22.0787 117.368C22.0787 122.557 23.9694 126.821 27.7507 130.204C31.532 133.565 36.3007 135.245 42.0567 135.245H45.2078C52.4973 135.098 58.7785 132.094 64.0303 126.212C69.2822 120.33 71.9081 112.2 71.9081 101.823V98.4614C71.9081 90.3316 69.5553 83.5042 64.8706 77.9583C60.165 72.4123 53.9048 68.526 46.0481 66.2782C16.7428 57.5812 2.10073 43.2121 2.10073 23.1711H24.1794C24.1794 34.242 33.4227 42.6659 51.9301 48.4009C63.8413 51.6361 73.6517 57.014 81.3614 64.5976C89.7643 73.0005 93.9868 84.3025 93.9868 98.4614V102.243C93.9868 117.095 89.2181 129.468 79.6808 139.363C70.1435 149.236 57.8752 154.194 42.876 154.194H39.9559V154.173Z" fill="white"/>
</svg>
