<svg width="198" height="80" viewBox="0 0 198 80" fill="none" xmlns="http://www.w3.org/2000/svg">
<path d="M197.508 3.05286L194.405 0L185.059 9.39629L188.199 12.3991L197.508 3.05286Z" fill="#f4c1c8"/>
<path d="M169.795 15.7896H168.857H157.258H156.32H120.111H119.173H117.484C117.484 13.4749 116.745 11.5731 115.257 10.0842C113.768 8.59535 111.991 7.85716 109.927 7.85716H103.683C102.582 7.85716 102.044 7.30665 102.044 6.21813V5.84277H97.1145C97.1145 7.59441 97.7151 9.0708 98.9287 10.2844C100.13 11.4856 101.619 12.0986 103.37 12.0986H109.939C110.665 12.0986 111.278 12.3614 111.791 12.8744C112.304 13.3873 112.566 14.0129 112.566 14.7261V15.8021H93.924H81.7376V15.7896H76.808V17.9541C74.8312 16.5153 72.554 15.7896 69.9516 15.7896H67.9372C65.2722 15.7896 62.9951 16.7405 61.1058 18.6298C59.2165 20.519 58.2656 22.7962 58.2656 25.4612V29.4023H60.7054C61.869 29.4023 62.8699 29.8277 63.7082 30.666C64.5465 31.5043 64.9719 32.4927 64.9719 33.6188L59.6169 35.6832L61.1684 39.7245L76.808 33.7189V38.9863C76.245 38.7986 75.6194 38.6985 74.9312 38.6985C73.2672 38.6985 71.9159 39.149 70.8399 40.0623C69.7764 39.149 68.5753 38.6985 67.224 38.6985C64.9719 38.6985 63.2203 39.3366 61.9691 40.6254C60.7179 41.9141 60.0923 43.4905 60.0923 45.3673C60.0923 47.2816 60.768 48.808 62.1067 49.9716C63.458 51.1352 65.0845 51.7107 66.9863 51.7107H69.1884V47.7695H66.9863C66.2356 47.7695 65.635 47.5318 65.1721 47.0439C64.7217 46.5559 64.4965 45.9553 64.4965 45.2297C64.4965 44.3538 64.7342 43.6907 65.2221 43.2278C65.7101 42.7774 66.2731 42.5522 66.9363 42.5522C68.1874 42.5522 68.813 43.1903 68.813 44.479V46.168H73.1796V44.1912C73.1796 43.6907 73.3422 43.2903 73.6675 42.9901C73.9929 42.6898 74.4433 42.5396 75.0063 42.5396C75.5443 42.5396 75.9697 42.7023 76.295 43.0151C76.6203 43.3279 76.783 43.7658 76.783 44.3288V44.9794V51.6982H81.7126V44.9794V38.1355V20.006H86.9425V44.992H91.8721V20.006H95.0126H97.077V36.3463C97.077 38.7236 97.9153 40.763 99.5918 42.4521C101.268 44.1411 103.295 44.992 105.673 44.992H107.036C109.889 44.992 112.329 44.0411 114.381 42.1518C116.433 40.2625 117.459 37.9604 117.459 35.2703V34.4195C117.459 32.0423 116.545 30.0154 114.706 28.3388C112.879 26.6623 110.677 25.824 108.112 25.824H106.098V30.053H108.112C109.301 30.053 110.339 30.4784 111.215 31.3417C112.091 32.205 112.529 33.2309 112.529 34.4195V35.2703C112.529 36.8093 111.991 38.1105 110.902 39.174C109.826 40.2375 108.525 40.7755 107.024 40.7755H105.66C104.622 40.7755 103.758 40.3501 103.058 39.4868C102.357 38.6235 102.007 37.585 102.007 36.3589V20.0186H119.148H120.086H121.775L128.769 27.2503L128.018 27.4881C126.142 28.0886 124.628 29.1521 123.489 30.7036C122.351 32.255 121.775 33.9691 121.775 35.8459V39.9747L138.491 45.0045H143.42V27.7633H146.148C147.274 27.7633 148.237 28.1512 149.038 28.9394C149.839 29.7277 150.239 30.6785 150.239 31.8046C150.239 32.9306 149.926 33.8065 149.301 34.407C148.675 35.0201 147.937 35.3204 147.099 35.3204V39.5493C149.326 39.5493 151.228 38.8362 152.804 37.4098C154.381 35.9835 155.181 34.2569 155.181 32.2175C155.181 29.6526 154.293 27.5631 152.529 25.9491C150.765 24.3351 148.638 23.5343 146.16 23.5343H138.503V40.5878L126.717 37.022V35.1452C126.717 34.332 126.98 33.5812 127.518 32.8931C128.056 32.205 128.744 31.7295 129.582 31.4793L134.8 29.8403L133.486 25.7489L127.943 20.0186H156.307H157.246H161.75C159.873 22.3958 158.935 25.4236 158.935 29.077V34.0066C158.935 36.8218 159.786 39.2491 161.475 41.2634C163.164 43.2778 165.504 44.529 168.469 44.992V40.763C167.155 40.4752 166.054 39.8246 165.178 38.7861C164.302 37.7477 163.865 36.3964 163.865 34.6948V28.3514C163.865 25.874 164.44 23.8722 165.579 22.3457C166.717 20.8068 168.119 20.0311 169.783 19.9935H171.472V25.9992H173.911C175.325 25.9992 176.539 26.412 177.577 27.2253C178.428 27.951 178.904 28.7643 179.029 29.6651C177.089 29.8903 175.413 30.6035 173.999 31.8296C172.31 33.331 171.459 35.1827 171.459 37.3723C171.459 39.4743 172.26 41.1634 173.874 42.4395C175.488 43.7283 177.34 44.3664 179.442 44.3664H182.069V40.1374H179.442C178.628 40.1374 177.915 39.8872 177.302 39.3867C176.689 38.8862 176.389 38.1981 176.389 37.3223C176.389 36.3839 176.752 35.5706 177.49 34.8825C178.228 34.1943 179.129 33.844 180.192 33.844H183.383C185.009 33.844 186.411 34.3695 187.587 35.4205C188.763 36.4715 189.351 37.7602 189.351 39.2991V44.9794H194.281V19.9935H197.471V15.7646H169.795V15.7896ZM76.783 29.0645L69.5512 31.8296C69.2384 30.7286 68.7004 29.7151 67.9497 28.7768C66.661 27.1753 65.072 26.0993 63.1577 25.5362V24.7855C63.1577 23.4342 63.6206 22.3082 64.5465 21.3823C65.4724 20.4565 66.5859 19.9935 67.8996 19.9935H69.914C71.8283 19.9935 73.4423 20.6692 74.7686 22.0079C76.0948 23.3592 76.7705 24.9607 76.7705 26.85V29.0645H76.783ZM189.376 31.2916C187.774 30.2907 185.96 29.7402 183.933 29.6526C183.683 28.0511 183.007 26.6122 181.919 25.336C180.48 23.7345 178.641 22.671 176.426 22.1455V20.0311H189.388V31.2916H189.376Z" fill="#f4c1c8"/>
<path d="M71.2912 75.8964V72.2555C71.2912 71.2671 70.9408 70.4288 70.2527 69.7407C69.5646 69.0525 68.7388 68.7022 67.7629 68.7022H67.2624C67.1498 70.1786 66.5743 71.4673 65.5483 72.5433C64.3597 73.782 62.9459 74.4075 61.2943 74.4075H60.0306V72.243H61.0065C62.1326 72.243 63.046 71.8301 63.7716 71.0044C64.4973 70.1786 64.8476 69.1902 64.8476 68.0516V67.5761C64.8476 66.4376 64.4848 65.4492 63.7466 64.6359C63.0209 63.8226 62.0951 63.4097 60.969 63.4097H60.0306V59.6562H58.1914V57.4917H75.9706V59.6562H73.756V75.8964H71.2912ZM71.2912 59.6562H62.4829V61.4329C63.8842 61.7457 65.0353 62.4714 65.9487 63.5974C66.6368 64.4858 67.0622 65.4742 67.2249 66.5502H67.7879C69.1266 66.5502 70.3027 66.9381 71.3037 67.7013V59.6562H71.2912Z" fill="#f4c1c8"/>
<path d="M87.5825 75.8964L77.1978 71.0169V68.3519C77.1978 67.1508 77.5231 66.0747 78.1862 65.1113C78.8494 64.1604 79.8503 63.4723 81.1891 63.0594L87.5825 61.1326V59.6562H75.3711V57.4917H92.2619V59.6562H90.0474V75.8964H87.5825ZM87.5825 63.4223L82.0273 65.1113C80.4509 65.5868 79.6626 66.5752 79.6626 68.0641V69.7532L87.5825 73.4817V63.4223Z" fill="#f4c1c8"/>
<path d="M111.242 77.3727L101.983 73.9695H101.896V71.78C101.896 70.8166 102.208 69.9658 102.847 69.2526C103.485 68.5394 104.41 68.0265 105.662 67.7387C106.9 67.4509 108.151 67.1631 109.39 66.8629C108.051 66.7878 106.938 66.2748 106.05 65.3239L105.749 65.0236C105.687 65.1237 105.624 65.2113 105.537 65.2864C104.536 66.3374 103.372 66.8503 102.071 66.8503C100.795 66.8503 99.581 66.2998 98.4299 65.1988L100.031 63.6348C100.745 64.348 101.445 64.6983 102.133 64.6983C102.721 64.6983 103.272 64.4106 103.785 63.835C104.298 63.2595 104.548 62.4713 104.548 61.4703V59.6311H96.9785V57.4666H116.672V59.6311H114.845V61.5829C114.845 62.9217 114.445 64.0728 113.657 65.0111V77.3477H111.242V77.3727ZM111.242 68.652L106.3 69.8406C104.973 70.1534 104.323 70.7415 104.323 71.5798V72.4931L111.242 75.033V68.652ZM111.642 63.8475C112.143 63.272 112.393 62.5213 112.393 61.6205V59.6686H107.013V61.6455C107.013 62.6339 107.263 63.3846 107.751 63.9226C108.239 64.4606 108.89 64.7234 109.703 64.7234C110.491 64.7234 111.142 64.4231 111.642 63.8475Z" fill="#f4c1c8"/>
<path d="M118.31 75.8964V59.6562H116.096V57.4917H122.99V59.6562H120.775V75.8964H118.31Z" fill="#f4c1c8"/>
<path d="M128.456 76.1089V73.8068L132.184 73.3063C135.85 72.7683 137.689 71.8925 137.689 70.6413C137.689 70.0157 137.452 69.5153 136.989 69.1649C136.526 68.8146 135.9 68.6269 135.112 68.6269H133.335C132.547 68.6269 131.947 68.8021 131.534 69.1399C131.121 69.4902 130.908 69.8906 130.908 70.341V71.4045H128.456V70.4536C128.456 69.2901 128.931 68.3267 129.87 67.5509C130.733 66.8753 131.721 66.5125 132.822 66.4249C132.347 66.2122 131.746 65.7492 131.021 65.0361C130.958 65.1362 130.896 65.2238 130.808 65.2988C129.807 66.3498 128.643 66.8628 127.342 66.8628C126.066 66.8628 124.852 66.3123 123.701 65.2112L125.303 63.6473C126.016 64.3604 126.717 64.7108 127.405 64.7108C127.993 64.7108 128.543 64.423 129.056 63.8475C129.569 63.2719 129.82 62.4837 129.82 61.4827V59.6435H122.25V57.479H141.943V59.6435H140.117V61.5954C140.117 63.0968 139.629 64.3479 138.64 65.3489C138.065 65.9244 137.427 66.3373 136.714 66.5875C137.427 66.7627 138.077 67.0755 138.665 67.5009C139.629 68.2266 140.117 69.265 140.117 70.6038C140.117 73.1687 137.714 74.7452 132.935 75.3332L140.304 77.9356L139.591 80.0001L128.456 76.1089ZM136.926 63.8475C137.427 63.2719 137.677 62.5212 137.677 61.6204V59.6686H132.297V61.6454C132.297 62.6338 132.547 63.3845 133.035 63.9225C133.523 64.4605 134.174 64.7233 134.987 64.7233C135.775 64.7233 136.426 64.423 136.926 63.8475Z" fill="#f4c1c8"/>
<path d="M142.833 76.0466V73.8821C143.834 73.8821 144.635 73.5567 145.21 72.9186C145.786 72.2806 146.086 71.4798 146.086 70.5039V69.503L143.922 65.7119C143.446 64.8236 143.208 63.9227 143.208 62.9969C143.208 61.7207 143.596 60.6071 144.359 59.6562H141.369V57.4917H149.977V59.6562H148.789C147.938 59.6562 147.212 59.9565 146.587 60.5446C145.961 61.1326 145.648 61.8583 145.648 62.7091C145.648 63.3972 145.823 64.0854 146.186 64.7485L148.526 68.8648V70.3412C148.526 72.0303 147.988 73.4066 146.912 74.4701C145.836 75.5211 144.585 76.0466 143.171 76.0466H142.833Z" fill="#f4c1c8"/>
<path d="M152.769 73.6192C151.743 72.3806 151.23 70.9417 151.23 69.3027V65.6368C151.23 63.2095 151.855 61.2577 153.119 59.7813L153.207 59.6687H149.391V57.5042H157.736V59.6687C156.61 59.6937 155.659 60.2192 154.871 61.2451C154.083 62.2836 153.682 63.6474 153.682 65.3365V69.5905C153.682 70.6414 153.982 71.5423 154.583 72.293C155.184 73.0562 155.959 73.5316 156.91 73.7318V75.8964C155.171 75.6211 153.795 74.8579 152.769 73.6192Z" fill="#f4c1c8"/>
<path d="M170.246 75.8964V72.2555C170.246 71.2671 169.896 70.4288 169.207 69.7407C168.519 69.0525 167.693 68.7022 166.718 68.7022H166.217C166.104 70.1786 165.529 71.4673 164.503 72.5433C163.314 73.782 161.901 74.4075 160.249 74.4075H158.973V72.243H159.949C161.075 72.243 161.988 71.8301 162.714 71.0044C163.44 70.1786 163.79 69.1902 163.79 68.0516V67.5761C163.79 66.4376 163.427 65.4492 162.689 64.6359C161.963 63.8226 161.037 63.4097 159.911 63.4097H158.96V59.6562H157.121V57.4917H174.9V59.6562H172.686V75.8964H170.246ZM170.246 59.6562H161.438V61.4329C162.839 61.7457 163.99 62.4714 164.903 63.5974C165.592 64.4858 166.017 65.4742 166.18 66.5502H166.743C168.081 66.5502 169.257 66.9381 170.258 67.7013V59.6562H170.246Z" fill="#f4c1c8"/>
<path d="M186.538 75.8964L176.153 71.0169V68.3519C176.153 67.1508 176.478 66.0747 177.141 65.1113C177.804 64.1604 178.805 63.4723 180.144 63.0594L186.538 61.1326V59.6562H174.326V57.4917H191.217V59.6562H189.002V75.8964H186.538ZM186.538 63.4223L180.982 65.1113C179.406 65.5868 178.618 66.5752 178.618 68.0641V69.7532L186.538 73.4817V63.4223Z" fill="#f4c1c8"/>
<path d="M192.83 75.8964V59.6562H190.615V57.4917H197.509V59.6562H195.295V75.8964H192.83Z" fill="#f4c1c8"/>
<path d="M21.2069 77.66C15.2263 77.66 10.2717 75.7082 6.34302 71.8171C2.40183 67.9134 0.4375 63.4968 0.4375 58.5421C0.4375 53.8753 2.2642 49.9091 5.90511 46.631C9.54602 43.3529 14.0002 41.7139 19.2426 41.7139H20.3311V51.5481C17.491 51.5481 15.3765 52.2363 13.9877 53.6251C12.5989 55.0139 11.9107 56.6529 11.9107 58.5421C11.9107 61.2447 12.8992 63.4593 14.8635 65.2109C16.8278 66.9625 19.3052 67.8384 22.2955 67.8384H23.9345C27.7256 67.7633 30.9786 66.1993 33.7187 63.134C36.4462 60.0686 37.8225 55.8521 37.8225 50.4596V48.7079C37.8225 44.479 36.5964 40.9257 34.1566 38.048C31.7168 35.1703 28.4512 33.1434 24.3724 31.9798C9.14565 27.463 1.52601 19.9935 1.52601 9.57129H12.9993C12.9993 15.3267 17.8038 19.7058 27.4253 22.6836C33.6186 24.3602 38.7233 27.1628 42.7271 31.104C47.0937 35.4706 49.2832 41.3385 49.2832 48.6954V50.6598C49.2832 58.3795 46.8059 64.8105 41.8513 69.9528C36.8966 75.0952 30.5157 77.66 22.7209 77.66H21.2069Z" fill="#fbbf24"/>
</svg>


