<svg width="428" height="191" viewBox="0 0 428 191" fill="none" xmlns="http://www.w3.org/2000/svg">
<path d="M427.621 6.6318L420.89 0L400.572 20.3921L407.428 26.9246L427.621 6.6318Z" fill="#182B4B"/>
<path d="M367.435 34.2772H365.399H340.213H338.176H259.538H257.502H253.825C253.825 29.235 252.211 25.1119 248.982 21.8829C245.753 18.6539 241.903 17.0394 237.407 17.0394H223.846C221.461 17.0394 220.269 15.8472 220.269 13.4627V12.6431H209.564C209.564 16.4433 210.88 19.6723 213.488 22.2803C216.096 24.8883 219.325 26.2047 223.125 26.2047H237.407C238.972 26.2047 240.313 26.776 241.431 27.8937C242.549 29.0114 243.12 30.3527 243.12 31.9175V34.2523H202.634H176.156V34.2275H165.451V38.9219C161.179 35.7923 156.211 34.2275 150.548 34.2275H146.152C140.365 34.2275 135.422 36.289 131.299 40.3873C127.175 44.5105 125.139 49.4533 125.139 55.2406V63.8098H130.454C132.963 63.8098 135.148 64.7288 136.987 66.5668C138.825 68.4049 139.744 70.5409 139.744 72.9999L128.119 77.4956L131.497 86.2635L165.476 73.1986V84.6491C164.259 84.2516 162.893 84.0281 161.402 84.0281C157.801 84.0281 154.845 85.0216 152.535 86.9839C150.225 85.0216 147.617 84.0281 144.686 84.0281C139.793 84.0281 135.993 85.419 133.261 88.2009C130.529 90.9828 129.187 94.4353 129.187 98.5088C129.187 102.657 130.653 105.985 133.584 108.494C136.515 111.002 140.042 112.269 144.19 112.269H148.983V103.7H144.19C142.55 103.7 141.259 103.178 140.265 102.11C139.272 101.067 138.775 99.7507 138.775 98.1859C138.775 96.2733 139.296 94.8327 140.365 93.8392C141.408 92.8457 142.65 92.3489 144.09 92.3489C146.822 92.3489 148.164 93.7398 148.164 96.5217V100.198H157.652V95.9256C157.652 94.8327 158 93.9634 158.72 93.3176C159.44 92.6718 160.409 92.3489 161.626 92.3489C162.793 92.3489 163.712 92.6966 164.433 93.3673C165.153 94.0379 165.501 95.0066 165.501 96.2237V97.6394V112.244H176.206V97.6394V82.7862V43.4176H187.582V97.6891H198.287V43.4176H205.118H209.613V78.9114C209.613 84.0778 211.427 88.499 215.078 92.175C218.704 95.8511 223.125 97.6891 228.292 97.6891H231.248C237.432 97.6891 242.748 95.6276 247.219 91.5293C251.665 87.4061 253.9 82.4385 253.9 76.5766V74.7386C253.9 69.5722 251.913 65.1759 247.939 61.5247C243.965 57.8983 239.171 56.0602 233.607 56.0602H229.211V65.2504H233.607C236.19 65.2504 238.426 66.1942 240.338 68.0571C242.251 69.92 243.195 72.1554 243.195 74.7386V76.5766C243.195 79.905 242.027 82.7365 239.668 85.0465C237.333 87.3564 234.526 88.5238 231.248 88.5238H228.292C226.056 88.5238 224.169 87.5799 222.629 85.7171C221.089 83.8542 220.344 81.5939 220.344 78.9363V43.4425H257.576H259.613H263.289L278.49 59.1402L276.85 59.6618C272.777 60.9534 269.498 63.2882 267.015 66.6414C264.531 70.0193 263.289 73.7202 263.289 77.8185V86.7851L299.602 97.6891H310.308V60.2579H316.219C318.678 60.2579 320.764 61.1024 322.503 62.8162C324.242 64.5052 325.111 66.5917 325.111 69.0507C325.111 71.5096 324.44 73.3973 323.074 74.7138C321.708 76.0302 320.119 76.7008 318.281 76.7008V85.891C323.099 85.891 327.247 84.351 330.675 81.2462C334.103 78.1414 335.816 74.3909 335.816 69.9697C335.816 64.4059 333.904 59.8605 330.054 56.3583C326.204 52.8561 321.609 51.1175 316.244 51.1175H299.627V88.1513L274.019 80.4017V76.3282C274.019 74.5647 274.59 72.9254 275.758 71.4351C276.925 69.9448 278.415 68.9265 280.253 68.38L291.58 64.8033L288.723 55.9361L276.677 43.4921H338.275H340.312H350.098C346.025 48.6585 343.988 55.2158 343.988 63.1888V73.8941C343.988 80.0043 345.826 85.27 349.502 89.6415C353.178 94.013 358.245 96.7204 364.703 97.7388V88.5486C361.847 87.9277 359.462 86.5119 357.575 84.2765C355.662 82.041 354.718 79.0853 354.718 75.4092V61.6488C354.718 56.2838 355.96 51.9371 358.444 48.584C360.928 45.2556 363.958 43.5418 367.584 43.4921H371.261V56.557H376.576C379.631 56.557 382.289 57.4512 384.524 59.2147C386.362 60.7795 387.405 62.543 387.679 64.5301C383.456 65.002 379.83 66.5668 376.775 69.2245C373.099 72.4783 371.261 76.5021 371.261 81.2711C371.261 85.8164 372.999 89.4925 376.526 92.2992C380.028 95.0811 384.052 96.472 388.622 96.472H394.335V87.2819H388.622C386.859 87.2819 385.319 86.7354 383.978 85.6426C382.661 84.5497 381.991 83.0594 381.991 81.1469C381.991 79.1101 382.785 77.3466 384.4 75.8315C385.99 74.3412 387.952 73.5961 390.262 73.5961H397.192C400.719 73.5961 403.774 74.7386 406.332 77.0237C408.89 79.3088 410.157 82.1155 410.157 85.4439V97.7885H420.862V43.517H427.792V34.3268H367.435V34.2772ZM165.426 63.1143L149.729 69.1252C149.058 66.7407 147.89 64.5301 146.251 62.4934C143.469 59.016 139.992 56.6812 135.844 55.4642V53.8248C135.844 50.8939 136.837 48.4349 138.849 46.423C140.861 44.4112 143.295 43.4176 146.152 43.4176H150.548C154.696 43.4176 158.223 44.8831 161.104 47.814C163.986 50.7449 165.451 54.2471 165.451 58.3205V63.1143H165.426ZM409.958 67.9329C406.481 65.7472 402.557 64.5549 398.135 64.3562C397.589 60.8789 396.124 57.7493 393.739 54.9674C390.61 51.4901 386.635 49.1801 381.817 48.0375V43.4425H409.958V67.9329Z" fill="#182B4B"/>
<path d="M148.411 182.536C144.934 182.536 141.978 181.319 139.544 178.885C137.11 176.451 135.893 173.495 135.893 170.018V142.795H130.453V137.504H159.713V135.691C159.713 134.35 159.241 133.183 158.297 132.264C157.353 131.32 156.21 130.848 154.844 130.848H144.71C142.301 130.848 140.215 129.978 138.476 128.265C136.737 126.551 135.868 124.464 135.868 122.005H141.879C141.879 124.365 142.947 125.557 145.058 125.557H154.844C157.825 125.557 160.408 126.625 162.519 128.737C164.63 130.848 165.699 133.431 165.699 136.412V137.504H170.194V142.795H141.879V170.018C141.879 172.005 142.524 173.694 143.791 175.134C145.083 176.55 146.598 177.27 148.386 177.27H150.498C153.056 177.27 155.217 176.376 157.005 174.563C158.793 172.75 159.688 170.564 159.688 168.006V166.416C159.688 164.33 158.943 162.566 157.477 161.101C156.012 159.635 154.223 158.89 152.162 158.89H148.908V153.6H152.162C155.887 153.6 159.067 154.841 161.724 157.325C164.382 159.809 165.699 162.839 165.699 166.416V168.006C165.699 172.054 164.208 175.507 161.252 178.314C158.297 181.145 154.695 182.561 150.498 182.561H148.411V182.536Z" fill="#fbbf24"/>
<path d="M174.191 182.536V142.77H168.752V137.479H185.617V142.77H180.178V182.536H174.191Z" fill="#fbbf24"/>
<path d="M213.808 182.536L188.399 170.589V164.081C188.399 161.15 189.218 158.493 190.833 156.158C192.447 153.823 194.906 152.134 198.185 151.116L213.833 146.421V142.795H183.928V137.504H241.205V142.795H219.844V146.421H223.098C227.196 146.421 230.648 147.614 233.455 149.998C236.262 152.382 237.653 155.289 237.653 158.716V160.082C237.653 163.113 236.51 165.696 234.25 167.807C231.99 169.893 229.233 170.961 226.004 170.961V165.671C227.544 165.671 228.885 165.124 229.978 164.032C231.095 162.939 231.642 161.622 231.642 160.082V158.716C231.642 156.779 230.822 155.14 229.208 153.749C227.593 152.382 225.557 151.687 223.098 151.687H219.844V182.536H213.808ZM213.808 151.985L200.197 156.108C196.322 157.276 194.409 159.685 194.409 163.361V167.484L213.808 176.6V151.985Z" fill="#fbbf24"/>
<path d="M245.156 182.536V142.77H239.717V137.479H256.582V142.77H251.142V182.536H245.156Z" fill="#fbbf24"/>
<path d="M285.146 182.536L259.363 174.786V167.757C259.363 165.05 260.183 162.591 261.872 160.331C263.536 158.095 265.722 156.506 268.429 155.587L271.037 154.792L259.463 142.77H254.893V137.479H296.596V142.77H291.156V182.536H285.146ZM285.146 142.795H267.113L276.899 153.003L278.489 158.07L270.317 160.604C268.877 161.125 267.684 161.995 266.765 163.187C265.846 164.379 265.399 165.671 265.399 167.062V171.11L285.17 177.047V142.795H285.146ZM268.082 189.267C267.337 188.547 266.964 187.677 266.964 186.659C266.964 185.641 267.337 184.771 268.082 184.026C268.827 183.281 269.721 182.909 270.715 182.909C271.733 182.909 272.602 183.281 273.323 184.026C274.043 184.771 274.415 185.666 274.415 186.659C274.415 187.653 274.043 188.547 273.323 189.267C272.602 189.987 271.733 190.36 270.715 190.36C269.721 190.36 268.827 189.987 268.082 189.267Z" fill="#fbbf24"/>
<path d="M316.416 176.972C313.907 173.942 312.641 170.415 312.641 166.391V157.4C312.641 151.463 314.181 146.695 317.285 143.068C320.365 139.442 324.141 137.579 328.587 137.504V142.795C325.83 142.845 323.495 144.136 321.558 146.67C319.62 149.203 318.651 152.556 318.651 156.704V167.136C318.651 169.695 319.397 171.905 320.862 173.768C322.328 175.631 324.24 176.798 326.55 177.27V182.561C322.303 181.865 318.925 180.003 316.416 176.972Z" fill="#fbbf24"/>
<path d="M359.212 182.536V173.619C359.212 171.21 358.368 169.148 356.679 167.459C354.99 165.77 352.953 164.926 350.593 164.926H349.351C349.053 168.552 347.662 171.682 345.154 174.339C342.248 177.37 338.77 178.91 334.722 178.91H331.617V173.619H334.001C336.758 173.619 339.019 172.601 340.782 170.589C342.546 168.552 343.415 166.143 343.415 163.336V162.169C343.415 159.362 342.521 156.977 340.732 154.966C338.944 152.954 336.684 151.96 333.927 151.96H331.617V142.77H327.121V137.479H370.638V142.77H365.198V182.536H359.212ZM359.212 142.795H337.628V147.142C341.055 147.912 343.887 149.675 346.097 152.432C347.786 154.593 348.83 157.027 349.202 159.685H350.568C353.847 159.685 356.728 160.629 359.187 162.516V142.795H359.212Z" fill="#fbbf24"/>
<path d="M399.132 182.536L373.697 170.589V164.081C373.697 161.15 374.517 158.493 376.132 156.158C377.746 153.823 380.205 152.134 383.484 151.116L399.132 146.421V142.795H369.227V137.504H410.582V142.795H405.143V182.561H399.132V182.536ZM399.132 151.985L385.52 156.108C381.646 157.276 379.733 159.685 379.733 163.361V167.484L399.132 176.6V151.985Z" fill="#fbbf24"/>
<path d="M414.549 182.536V142.77H409.109V137.479H425.974V142.77H420.535V182.536H414.549Z" fill="#fbbf24"/>
<path d="M47.2481 182.288C33.6616 182.288 22.3851 177.866 13.4433 168.974C4.50157 160.107 0.00585938 150.048 0.00585938 138.771C0.00585938 128.165 4.15383 119.124 12.4498 111.673C20.7458 104.221 30.8549 100.495 42.7772 100.495H45.2611V122.875C38.8031 122.875 33.9845 124.439 30.8301 127.594C27.6756 130.748 26.1108 134.474 26.1108 138.771C26.1108 144.906 28.3463 149.948 32.8171 153.947C37.288 157.921 42.9263 159.908 49.732 159.908H53.4577C62.0765 159.734 69.5032 156.183 75.7127 149.228C81.9223 142.273 85.027 132.661 85.027 120.391V116.417C85.027 106.804 82.2452 98.7318 76.7062 92.1745C71.1425 85.6173 63.7407 81.0222 54.4512 78.3645C19.8019 68.0815 2.48968 51.0921 2.48968 27.3965H28.5946C28.5946 40.4862 39.5234 50.4463 61.4059 57.2272C75.4892 61.0522 87.0886 67.4108 96.2042 76.3774C106.14 86.3127 111.132 99.6757 111.132 116.417V120.888C111.132 138.448 105.494 153.078 94.2172 164.777C82.9406 176.451 68.4351 182.312 50.7006 182.312H47.2481V182.288Z" fill="#fbbf24"/>
</svg>

